<svg width="142" height="192" viewBox="0 0 142 192" fill="none" xmlns="http://www.w3.org/2000/svg" data-llp-composed="true" id="logolanding" class="lazy-line-painter">
<path d="M27.8923 167.028C27.9064 169.611 27.1846 172.144 25.8113 174.331C25.1569 175.367 24.369 176.312 23.4679 177.143C22.5569 177.981 21.5426 178.699 20.4496 179.28C18.1654 180.495 15.6174 181.129 13.0303 181.126H0.628906V153.005H13.0303C14.3336 153.002 15.6323 153.159 16.8969 153.474C18.1203 153.779 19.3033 154.227 20.4214 154.81C21.5151 155.387 22.5322 156.099 23.4491 156.928C24.8594 158.204 25.9842 159.763 26.7499 161.504C27.5156 163.244 27.9049 165.127 27.8923 167.028ZM20.0184 167.028C20.0261 165.561 19.8402 164.098 19.4653 162.679C19.1249 161.374 18.5379 160.146 17.7359 159.061C16.9489 158.014 15.9302 157.164 14.7597 156.577C13.4118 155.928 11.9295 155.607 10.4338 155.639H8.38094V178.371H10.4338C11.9161 178.405 13.3851 178.084 14.7176 177.433C15.8931 176.839 16.9163 175.983 17.7078 174.93C18.514 173.844 19.1072 172.615 19.456 171.308C19.8334 169.913 20.0225 168.474 20.0184 167.028Z" fill="#ECEDEF" data-llp-id="logolanding-0" data-llp-duration="3100" data-llp-delay="0" fill-opacity="0" style="stroke-linecap: round; stroke-linejoin: miter;" data-llp-stroke-cap="round" data-llp-stroke-join="arcs"/>
<path d="M38.5928 174.602C38.5873 176.191 38.3906 177.774 38.007 179.317C37.6148 180.912 37.0621 182.463 36.3572 183.947C35.6537 185.435 34.8026 186.848 33.8169 188.165C32.8784 189.426 31.7857 190.565 30.5643 191.554L27.9865 189.989C28.6822 189.027 29.2656 187.989 29.7253 186.895C30.2251 185.732 30.6402 184.533 30.9674 183.31C31.2986 182.078 31.549 180.825 31.7172 179.56C31.8812 178.374 31.9658 177.178 31.9703 175.98V158.568H38.5928V174.602ZM38.8834 153.122C38.8856 153.831 38.6787 154.525 38.2885 155.117C37.8984 155.708 37.3423 156.172 36.69 156.45C36.2456 156.64 35.7673 156.738 35.2839 156.738C34.8006 156.738 34.3223 156.64 33.8779 156.45C33.4471 156.271 33.0554 156.01 32.7249 155.681C32.3894 155.345 32.1235 154.946 31.9426 154.507C31.7616 154.067 31.6691 153.597 31.6704 153.122C31.6658 152.639 31.7616 152.16 31.9516 151.716C32.1337 151.289 32.3962 150.9 32.7249 150.572C33.0554 150.243 33.4471 149.982 33.8779 149.804C34.3223 149.614 34.8006 149.516 35.2839 149.516C35.7673 149.516 36.2456 149.614 36.69 149.804C37.5503 150.17 38.2355 150.856 38.6022 151.716C38.7858 152.161 38.8751 152.64 38.8647 153.122H38.8834Z" fill="#ECEDEF" data-llp-id="logolanding-1" data-llp-duration="3100" data-llp-delay="0" fill-opacity="0" style="stroke-linecap: round; stroke-linejoin: miter;" data-llp-stroke-cap="round" data-llp-stroke-join="arcs"/>
<path d="M67.826 169.797C67.8326 170.908 67.6746 172.014 67.3573 173.078C67.0608 174.098 66.6239 175.071 66.059 175.97C65.5039 176.84 64.8303 177.629 64.0577 178.313C63.2791 179.008 62.4162 179.601 61.4894 180.08C60.5426 180.569 59.5401 180.942 58.5038 181.191C56.3576 181.716 54.1166 181.716 51.9704 181.191C50.9373 180.942 49.9381 180.569 48.9942 180.08C48.0674 179.601 47.2045 179.008 46.4258 178.313C45.6532 177.629 44.9797 176.84 44.4246 175.97C43.8619 175.08 43.425 174.116 43.1263 173.106C42.505 170.963 42.505 168.688 43.1263 166.545C43.425 165.536 43.8619 164.574 44.4246 163.686C44.9785 162.814 45.6522 162.026 46.4258 161.342C47.2021 160.645 48.0654 160.051 48.9942 159.575C50.9272 158.583 53.0688 158.065 55.2418 158.065C57.4147 158.065 59.5564 158.583 61.4894 159.575C62.4182 160.051 63.2815 160.645 64.0577 161.342C64.8314 162.026 65.5051 162.814 66.059 163.686C66.6216 164.574 67.0585 165.536 67.3573 166.545C67.6714 167.6 67.8293 168.696 67.826 169.797ZM61.1097 169.797C61.1097 169.174 61.0722 168.513 61.0019 167.815C60.9315 167.124 60.8109 166.44 60.641 165.767C60.4746 165.1 60.2423 164.451 59.9474 163.831C59.673 163.237 59.3078 162.69 58.8647 162.209C58.4265 161.744 57.9031 161.367 57.3227 161.098C56.6656 160.805 55.9518 160.661 55.2324 160.677C54.538 160.664 53.85 160.812 53.2218 161.108C52.6427 161.388 52.1225 161.776 51.6892 162.251C51.2422 162.743 50.8724 163.299 50.5924 163.901C50.3003 164.527 50.062 165.176 49.88 165.842C49.6999 166.509 49.5699 167.189 49.491 167.876C49.3348 169.154 49.3348 170.446 49.491 171.724C49.5703 172.412 49.7003 173.093 49.88 173.762C50.0604 174.43 50.2988 175.081 50.5924 175.707C50.8749 176.305 51.2445 176.858 51.6892 177.348C52.1239 177.82 52.6439 178.207 53.2218 178.487C53.85 178.783 54.538 178.93 55.2324 178.918C55.9456 178.932 56.6532 178.788 57.304 178.496C57.8891 178.227 58.4161 177.847 58.8553 177.376C59.2994 176.896 59.6648 176.348 59.938 175.754C60.2282 175.133 60.4604 174.487 60.6317 173.823C60.8079 173.15 60.9317 172.463 61.0019 171.77C61.065 171.115 61.0947 170.456 61.091 169.797H61.1097Z" fill="#ECEDEF" data-llp-id="logolanding-2" data-llp-duration="3100" data-llp-delay="0" fill-opacity="0" style="stroke-linecap: round; stroke-linejoin: miter;" data-llp-stroke-cap="round" data-llp-stroke-join="arcs"/>
<path d="M95.9701 169.876C95.9823 171.443 95.7303 173.001 95.2248 174.484C94.766 175.864 94.0363 177.139 93.0783 178.233C92.1262 179.307 90.9547 180.163 89.6428 180.745C88.19 181.383 86.6175 181.703 85.031 181.683C84.1858 181.688 83.3453 181.557 82.5423 181.294C81.7686 181.039 81.0384 180.667 80.3769 180.192C79.0223 179.211 78.0028 177.836 77.457 176.255L74.5278 181.125H71.9875V150.271H78.5866V161.262C79.3021 160.238 80.2711 159.418 81.3987 158.881C82.5366 158.367 83.7731 158.108 85.0216 158.122C86.6081 158.102 88.1806 158.421 89.6334 159.059C90.9429 159.641 92.1139 160.494 93.0689 161.562C94.0288 162.655 94.7588 163.93 95.2155 165.311C95.7195 166.78 95.9745 168.323 95.9701 169.876ZM89.2679 169.876C89.2679 169.305 89.2398 168.695 89.1835 168.049C89.1236 167.402 89.0218 166.76 88.8789 166.127C88.7372 165.498 88.538 164.883 88.2836 164.29C88.0432 163.726 87.7176 163.203 87.3181 162.738C86.9259 162.29 86.4478 161.925 85.9121 161.665C85.3062 161.384 84.644 161.246 83.9764 161.262C83.3491 161.249 82.7287 161.394 82.172 161.684C81.635 161.964 81.1575 162.346 80.7659 162.809C80.3584 163.293 80.0193 163.83 79.7583 164.407C79.4857 165.012 79.2646 165.639 79.0974 166.282C78.9312 166.897 78.8075 167.524 78.7272 168.156C78.6521 168.727 78.6129 169.301 78.61 169.876C78.61 170.464 78.6381 171.089 78.6944 171.751C78.7539 172.404 78.8557 173.052 78.999 173.692C79.1364 174.322 79.3358 174.937 79.5942 175.529C79.8374 176.09 80.1662 176.61 80.5691 177.071C80.9591 177.519 81.4379 177.881 81.9751 178.135C82.5907 178.41 83.26 178.545 83.9342 178.528C84.5658 178.545 85.1933 178.421 85.7712 178.166C86.3491 177.911 86.8631 177.53 87.276 177.052C87.6765 176.585 88.0022 176.058 88.2415 175.491C88.4944 174.895 88.6937 174.277 88.8367 173.645C88.98 173.01 89.0818 172.366 89.1413 171.718C89.2398 171.058 89.2679 170.448 89.2679 169.876Z" fill="#ECEDEF" data-llp-id="logolanding-3" data-llp-duration="3100" data-llp-delay="0" fill-opacity="0" style="stroke-linecap: round; stroke-linejoin: miter;" data-llp-stroke-cap="round" data-llp-stroke-join="arcs"/>
<path d="M117.566 181.126H98.4668V178.51L110.282 161.169H98.4668V158.549H117.566V161.169L105.75 178.51H117.566V181.126Z" fill="#ECEDEF" data-llp-id="logolanding-4" data-llp-duration="3100" data-llp-delay="0" fill-opacity="0" style="stroke-linecap: round; stroke-linejoin: miter;" data-llp-stroke-cap="round" data-llp-stroke-join="arcs"/>
<path d="M141.999 158.567L133.797 178.411C132.86 180.673 131.815 182.915 130.662 185.136C129.521 187.331 128.27 189.467 126.912 191.534L124.334 189.969C124.647 189.384 125.031 188.708 125.487 187.939C125.944 187.171 126.38 186.377 126.795 185.558C127.226 184.738 127.62 183.927 127.986 183.126C128.318 182.414 128.598 181.68 128.824 180.928L118.982 158.567H125.581L132.279 173.822L137.434 158.567H141.999Z" fill="#ECEDEF" data-llp-id="logolanding-5" data-llp-duration="3100" data-llp-delay="0" fill-opacity="0" style="stroke-linecap: round; stroke-linejoin: miter;" data-llp-stroke-cap="round" data-llp-stroke-join="arcs"/>
<path d="M57.2345 77.6467C57.2345 73.9025 58.7218 70.3116 61.3694 67.6641C64.017 65.0165 67.6078 63.5291 71.352 63.5291H78.4108V56.4703H71.352C67.1638 56.4703 63.0695 57.7123 59.5871 60.0392C56.1046 62.3661 53.3904 65.6734 51.7876 69.5429C50.1848 73.4123 49.7655 77.6702 50.5826 81.778C51.3997 85.8858 53.4165 89.6591 56.3781 92.6207C59.3397 95.5822 63.1129 97.5991 67.2207 98.4162C71.3285 99.2333 75.5864 98.8139 79.4559 97.2111C83.3254 95.6083 86.6327 92.8941 88.9596 89.4117C91.2864 85.9292 92.5284 81.835 92.5284 77.6467V0H85.4696V77.6467C85.4696 81.3909 83.9822 84.9818 81.3347 87.6294C78.6871 90.2769 75.0963 91.7643 71.352 91.7643C67.6078 91.7643 64.017 90.2769 61.3694 87.6294C58.7218 84.9818 57.2345 81.3909 57.2345 77.6467Z" fill="url(#paint0_linear)" data-llp-id="logolanding-6" data-llp-duration="3100" data-llp-delay="0" fill-opacity="0" style="stroke-linecap: round; stroke-linejoin: miter;" data-llp-stroke-cap="round" data-llp-stroke-join="arcs"/>
<path d="M71.3534 52.9404H78.4122V45.8816H71.3534C63.2375 45.8914 55.4325 49.0036 49.5367 54.5809C43.6409 60.1583 40.1005 67.7787 39.6406 75.8815H46.6994C47.1522 69.651 49.9458 63.8226 54.5191 59.5671C59.0923 55.3116 65.1064 52.9442 71.3534 52.9404Z" fill="url(#paint1_linear)" data-llp-id="logolanding-7" data-llp-duration="3100" data-llp-delay="0" fill-opacity="0" style="stroke-linecap: round; stroke-linejoin: miter;" data-llp-stroke-cap="round" data-llp-stroke-join="arcs"/>
<path d="M96.0579 77.6463C96.065 84.0493 93.5855 90.2049 89.1421 94.8152C84.6987 99.4255 78.6386 102.13 72.2397 102.359C65.8408 102.588 59.603 100.323 54.8416 96.042C50.0802 91.7609 47.1672 85.7981 46.7169 79.411H39.6581C40.199 87.6083 43.8946 95.2772 49.9692 100.808C56.0438 106.338 64.0249 109.3 72.2368 109.072C80.4487 108.844 88.2528 105.443 94.0107 99.5831C99.7685 93.7234 103.032 85.861 103.117 77.6463V28.2347H96.0579V77.6463Z" fill="url(#paint2_linear)" data-llp-id="logolanding-8" data-llp-duration="3100" data-llp-delay="0" fill-opacity="0" style="stroke-linecap: round; stroke-linejoin: miter;" data-llp-stroke-cap="round" data-llp-stroke-join="arcs"/>
<path d="M103.119 7.05908H96.0602V24.7061H103.119V7.05908Z" fill="url(#paint3_linear)" data-llp-id="logolanding-9" data-llp-duration="3100" data-llp-delay="0" fill-opacity="0" style="stroke-linecap: round; stroke-linejoin: miter;" data-llp-stroke-cap="round" data-llp-stroke-join="arcs"/>
<path d="M106.647 14.118V77.6472C106.647 84.6277 104.577 91.4514 100.699 97.2554C96.8205 103.06 91.3083 107.583 84.8592 110.255C78.41 112.926 71.3136 113.625 64.4673 112.263C57.6209 110.901 51.3321 107.54 46.3962 102.604C41.4602 97.6678 38.0988 91.379 36.737 84.5327C35.3751 77.6863 36.0741 70.5899 38.7454 64.1408C41.4167 57.6916 45.9404 52.1795 51.7445 48.3013C57.5486 44.4232 64.3723 42.3532 71.3528 42.3532H78.4116V35.2944H71.3528C62.9762 35.2944 54.7877 37.7784 47.8228 42.4321C40.858 47.0859 35.4295 53.7005 32.2239 61.4395C29.0184 69.1784 28.1796 77.6942 29.8138 85.9098C31.448 94.1254 35.4817 101.672 41.4049 107.595C47.328 113.518 54.8745 117.552 63.0902 119.186C71.3058 120.82 79.8215 119.982 87.5605 116.776C95.2994 113.57 101.914 108.142 106.568 101.177C111.222 94.2122 113.706 86.0238 113.706 77.6472V14.118H106.647Z" fill="url(#paint4_linear)" data-llp-id="logolanding-10" data-llp-duration="3100" data-llp-delay="0" fill-opacity="0" style="stroke-linecap: round; stroke-linejoin: miter;" data-llp-stroke-cap="round" data-llp-stroke-join="arcs"/>
<defs>
<linearGradient id="paint0_linear" x1="118.044" y1="4.77174" x2="3.4653" y2="153.317" gradientUnits="userSpaceOnUse">
<stop stop-color="#C97863"/>
<stop offset="1" stop-color="#EDC8B8"/>
</linearGradient>
<linearGradient id="paint1_linear" x1="6522.25" y1="-159.317" x2="-124.555" y2="10977.6" gradientUnits="userSpaceOnUse">
<stop stop-color="#C97863"/>
<stop offset="1" stop-color="#EDC8B8"/>
</linearGradient>
<linearGradient id="paint2_linear" x1="13263.8" y1="2044.62" x2="-7085.45" y2="22750.9" gradientUnits="userSpaceOnUse">
<stop stop-color="#C97863"/>
<stop offset="1" stop-color="#EDC8B8"/>
</linearGradient>
<linearGradient id="paint3_linear" x1="1338.76" y1="6.70619" x2="-2292.18" y2="1889.64" gradientUnits="userSpaceOnUse">
<stop stop-color="#C97863"/>
<stop offset="1" stop-color="#EDC8B8"/>
</linearGradient>
<linearGradient id="paint4_linear" x1="17131" y1="2124.34" x2="-9504.95" y2="29749.3" gradientUnits="userSpaceOnUse">
<stop stop-color="#C97863"/>
<stop offset="1" stop-color="#EDC8B8"/>
</linearGradient>
</defs>
</svg>