<svg width="50" height="20" viewBox="0 0 50 20" fill="none" xmlns="http://www.w3.org/2000/svg">
<path d="M4.48374 12.3251C4.48374 11.7308 4.71984 11.1608 5.1401 10.7405C5.56035 10.3203 6.13034 10.0842 6.72467 10.0842H7.84513V8.9637H6.72467C6.05985 8.9637 5.40996 9.16084 4.85718 9.53019C4.30441 9.89955 3.87357 10.4245 3.61915 11.0387C3.36474 11.6529 3.29817 12.3288 3.42787 12.9809C3.55757 13.6329 3.87771 14.2318 4.34781 14.7019C4.81791 15.172 5.41685 15.4922 6.06889 15.6219C6.72094 15.7516 7.3968 15.685 8.01102 15.4306C8.62523 15.1762 9.15021 14.7453 9.51956 14.1926C9.88891 13.6398 10.0861 12.9899 10.0861 12.3251V0H8.96559V12.3251C8.96559 12.9194 8.7295 13.4894 8.30924 13.9097C7.88899 14.3299 7.319 14.566 6.72467 14.566C6.13034 14.566 5.56035 14.3299 5.1401 13.9097C4.71984 13.4894 4.48374 12.9194 4.48374 12.3251Z" fill="#303030"/>
<path d="M6.72527 8.40367H7.84573V7.2832H6.72527C5.43702 7.28475 4.1981 7.77877 3.26225 8.66408C2.32639 9.54938 1.76442 10.759 1.69141 12.0452H2.81187C2.88375 11.0562 3.32719 10.131 4.05311 9.45554C4.77904 8.78005 5.73368 8.40426 6.72527 8.40367Z" fill="#303030"/>
<path d="M10.6439 12.3257C10.645 13.342 10.2514 14.3191 9.54613 15.0509C8.84082 15.7827 7.87889 16.2121 6.86317 16.2484C5.84745 16.2847 4.85731 15.9252 4.10152 15.2457C3.34573 14.5661 2.88335 13.6196 2.81187 12.6058H1.69141C1.77725 13.9069 2.36388 15.1243 3.32811 16.0022C4.29235 16.88 5.5592 17.3502 6.86271 17.314C8.16621 17.2777 9.40498 16.7379 10.3189 15.8077C11.2329 14.8776 11.751 13.6296 11.7644 12.3257V4.48242H10.6439V12.3257Z" fill="#303030"/>
<path d="M11.765 1.11914H10.6445V3.9203H11.765V1.11914Z" fill="#303030"/>
<path d="M12.3251 2.24023V12.3244C12.3251 13.4324 11.9965 14.5156 11.3809 15.4369C10.7653 16.3582 9.89038 17.0762 8.86669 17.5003C7.843 17.9243 6.71656 18.0352 5.62982 17.8191C4.54308 17.6029 3.54484 17.0693 2.76134 16.2858C1.97785 15.5023 1.44428 14.5041 1.22811 13.4173C1.01195 12.3306 1.12289 11.2042 1.54692 10.1805C1.97094 9.15679 2.689 8.28183 3.6103 7.66624C4.53159 7.05065 5.61474 6.72208 6.72278 6.72208H7.84324V5.60162H6.72278C5.39314 5.60162 4.09336 5.9959 2.9878 6.73461C1.88225 7.47332 1.02057 8.52327 0.511744 9.7517C0.00291288 10.9801 -0.13022 12.3319 0.129179 13.6359C0.388579 14.94 1.02886 16.1379 1.96906 17.0781C2.90925 18.0183 4.10714 18.6586 5.41123 18.918C6.71532 19.1774 8.06704 19.0443 9.29547 18.5354C10.5239 18.0266 11.5738 17.1649 12.3126 16.0594C13.0513 14.9538 13.4455 13.654 13.4455 12.3244V2.24023H12.3251Z" fill="#303030"/>
<path d="M23.2066 10.7811C23.2099 11.3875 23.0404 11.9823 22.718 12.4958C22.5643 12.7391 22.3793 12.9611 22.1677 13.1561C21.9538 13.3529 21.7156 13.5216 21.4589 13.658C20.9226 13.9432 20.3242 14.0921 19.7167 14.0916H16.8047V7.4883H19.7167C20.0228 7.48745 20.3277 7.52441 20.6247 7.59835C20.912 7.66993 21.1898 7.77522 21.4523 7.91201C21.7091 8.04751 21.948 8.21463 22.1633 8.40946C22.4944 8.70899 22.7586 9.0751 22.9384 9.48382C23.1181 9.89254 23.2096 10.3346 23.2066 10.7811ZM21.3577 10.7811C21.3595 10.4365 21.3158 10.0931 21.2278 9.75983C21.1479 9.45331 21.01 9.16492 20.8217 8.91021C20.6369 8.66444 20.3977 8.4648 20.1229 8.32692C19.8063 8.17451 19.4583 8.09909 19.107 8.10681H18.625V13.4445H19.107C19.4551 13.4526 19.8001 13.3771 20.1129 13.2244C20.389 13.0849 20.6292 12.8839 20.8151 12.6367C21.0044 12.3816 21.1437 12.0929 21.2256 11.786C21.3142 11.4584 21.3586 11.1205 21.3577 10.7811Z" fill="#303030"/>
<path d="M25.721 12.5586C25.7197 12.9319 25.6735 13.3036 25.5834 13.6658C25.4914 14.0404 25.3616 14.4047 25.1961 14.7531C25.0308 15.1024 24.831 15.4342 24.5996 15.7436C24.3792 16.0397 24.1226 16.307 23.8358 16.5393L23.2305 16.1717C23.3938 15.946 23.5308 15.7023 23.6388 15.4454C23.7561 15.1721 23.8536 14.8907 23.9304 14.6034C24.0082 14.3141 24.067 14.02 24.1065 13.723C24.145 13.4444 24.1649 13.1635 24.1659 12.8822V8.79363H25.721V12.5586ZM25.7893 7.51479C25.7898 7.68125 25.7412 7.84417 25.6496 7.98316C25.5579 8.12214 25.4274 8.23103 25.2742 8.29618C25.1698 8.34081 25.0575 8.36381 24.944 8.36381C24.8305 8.36381 24.7182 8.34081 24.6139 8.29618C24.5127 8.25425 24.4207 8.19293 24.3431 8.11569C24.2643 8.03676 24.2019 7.94304 24.1594 7.83992C24.1169 7.73681 24.0952 7.62632 24.0955 7.51479C24.0944 7.40135 24.1169 7.28893 24.1615 7.18463C24.2043 7.0843 24.2659 6.99314 24.3431 6.91609C24.4207 6.83885 24.5127 6.77754 24.6139 6.7356C24.7182 6.69098 24.8305 6.66797 24.944 6.66797C25.0575 6.66797 25.1698 6.69098 25.2742 6.7356C25.4762 6.82171 25.6371 6.98261 25.7232 7.18463C25.7663 7.28925 25.7873 7.40166 25.7848 7.51479H25.7893Z" fill="#303030"/>
<path d="M32.589 11.4288C32.5906 11.6896 32.5535 11.9492 32.479 12.1992C32.4093 12.4386 32.3067 12.6671 32.1741 12.8782C32.0438 13.0826 31.8856 13.2678 31.7042 13.4285C31.5213 13.5916 31.3187 13.731 31.1011 13.8434C30.8787 13.9583 30.6434 14.0459 30.4 14.1042C29.8961 14.2275 29.3698 14.2275 28.8658 14.1042C28.6233 14.0457 28.3886 13.9581 28.167 13.8434C27.9494 13.731 27.7467 13.5916 27.5639 13.4285C27.3825 13.2678 27.2243 13.0826 27.094 12.8782C26.9618 12.6692 26.8593 12.4429 26.7891 12.2058C26.6432 11.7026 26.6432 11.1683 26.7891 10.665C26.8593 10.4282 26.9618 10.2023 27.094 9.99368C27.224 9.78913 27.3822 9.60389 27.5639 9.44341C27.7462 9.27965 27.9489 9.14019 28.167 9.0285C28.6209 8.79541 29.1238 8.67383 29.634 8.67383C30.1443 8.67383 30.6472 8.79541 31.1011 9.0285C31.3192 9.14019 31.5219 9.27965 31.7042 9.44341C31.8858 9.60389 32.044 9.78913 32.1741 9.99368C32.3062 10.2023 32.4088 10.4282 32.479 10.665C32.5527 10.9129 32.5898 11.1702 32.589 11.4288ZM31.0119 11.4288C31.0119 11.2824 31.0031 11.1273 30.9866 10.9633C30.9701 10.8011 30.9418 10.6404 30.9019 10.4823C30.8628 10.3258 30.8082 10.1735 30.739 10.0278C30.6746 9.88842 30.5888 9.75994 30.4848 9.64701C30.3819 9.5377 30.2589 9.44916 30.1227 9.38618C29.9684 9.31737 29.8007 9.28355 29.6318 9.28713C29.4688 9.28422 29.3072 9.31886 29.1597 9.38838C29.0237 9.45414 28.9016 9.54529 28.7998 9.65691C28.6949 9.77227 28.608 9.90289 28.5423 10.0443C28.4737 10.1912 28.4177 10.3436 28.375 10.4999C28.3327 10.6567 28.3022 10.8163 28.2837 10.9776C28.247 11.2776 28.247 11.5811 28.2837 11.8811C28.3023 12.0427 28.3328 12.2028 28.375 12.3599C28.4174 12.5167 28.4733 12.6695 28.5423 12.8166C28.6086 12.957 28.6954 13.0868 28.7998 13.2018C28.9019 13.3128 29.024 13.4035 29.1597 13.4692C29.3072 13.5387 29.4688 13.5734 29.6318 13.5705C29.7993 13.5738 29.9654 13.54 30.1183 13.4714C30.2557 13.4083 30.3794 13.319 30.4826 13.2084C30.5868 13.0957 30.6726 12.9671 30.7368 12.8276C30.8049 12.6818 30.8595 12.53 30.8997 12.3742C30.9411 12.216 30.9701 12.0548 30.9866 11.8921C31.0014 11.7381 31.0084 11.5835 31.0075 11.4288H31.0119Z" fill="#303030"/>
<path d="M39.1901 11.4493C39.193 11.8172 39.1338 12.1829 39.0151 12.5312C38.9074 12.8553 38.736 13.1546 38.5111 13.4116C38.2875 13.6637 38.0124 13.8649 37.7044 14.0015C37.3632 14.1512 36.994 14.2263 36.6214 14.2216C36.423 14.2229 36.2256 14.1921 36.037 14.1303C35.8554 14.0704 35.6839 13.9832 35.5286 13.8716C35.2105 13.6412 34.9711 13.3184 34.8429 12.9472L34.1551 14.0906H33.5586V6.8457H35.1082V9.4265C35.2762 9.18615 35.5037 8.99351 35.7685 8.86742C36.0357 8.74677 36.3261 8.68593 36.6192 8.68913C36.9918 8.68444 37.361 8.75949 37.7022 8.90924C38.0096 9.04581 38.2846 9.24613 38.5089 9.49693C38.7343 9.75362 38.9057 10.053 39.0129 10.3774C39.1313 10.7223 39.1912 11.0846 39.1901 11.4493ZM37.6163 11.4493C37.6163 11.315 37.6097 11.172 37.5965 11.0201C37.5824 10.8683 37.5586 10.7176 37.525 10.5689C37.4917 10.4211 37.4449 10.2767 37.3852 10.1375C37.3288 10.0051 37.2523 9.88226 37.1585 9.77317C37.0664 9.66795 36.9541 9.58225 36.8283 9.52114C36.6861 9.45523 36.5306 9.42285 36.3738 9.4265C36.2265 9.42354 36.0808 9.4576 35.9501 9.52555C35.824 9.59142 35.7119 9.68112 35.6199 9.78968C35.5242 9.90334 35.4446 10.0296 35.3833 10.165C35.3193 10.3071 35.2674 10.4543 35.2281 10.6052C35.1891 10.7498 35.16 10.8968 35.1412 11.0454C35.1236 11.1793 35.1144 11.3142 35.1137 11.4493C35.1137 11.5872 35.1203 11.734 35.1335 11.8895C35.1475 12.0428 35.1714 12.195 35.205 12.3452C35.2373 12.4932 35.2841 12.6377 35.3448 12.7766C35.4019 12.9084 35.4791 13.0306 35.5737 13.1387C35.6653 13.2439 35.7777 13.3289 35.9039 13.3885C36.0484 13.4532 36.2056 13.4848 36.3639 13.4809C36.5122 13.4849 36.6595 13.4558 36.7952 13.3959C36.931 13.3359 37.0516 13.2466 37.1486 13.1343C37.2426 13.0245 37.3191 12.9009 37.3753 12.7678C37.4347 12.6277 37.4815 12.4826 37.5151 12.3342C37.5487 12.1851 37.5726 12.034 37.5866 11.8818C37.6097 11.7267 37.6163 11.5836 37.6163 11.4493Z" fill="#303030"/>
<path d="M44.266 14.0924H39.7812V13.4783L42.5557 9.40622H39.7812V8.79102H44.266V9.40622L41.4915 13.4783H44.266V14.0924Z" fill="#303030"/>
<path d="M49.9986 8.79297L48.0726 13.4527C47.8525 13.9839 47.6071 14.5103 47.3363 15.032C47.0686 15.5474 46.7747 16.0488 46.4559 16.5343L45.8506 16.1667C45.924 16.0295 46.0142 15.8706 46.1213 15.6901C46.2284 15.5096 46.3308 15.3233 46.4284 15.131C46.5296 14.9385 46.6221 14.7481 46.7079 14.5599C46.786 14.3928 46.8518 14.2203 46.9049 14.0437L44.5938 8.79297H46.1433L47.716 12.3753L48.9266 8.79297H49.9986Z" fill="#303030"/>
</svg>
