<svg width="85" height="120" viewBox="0 0 85 120" fill="none" xmlns="http://www.w3.org/2000/svg">
<path d="M28.2345 77.6467C28.2345 73.9025 29.7218 70.3116 32.3694 67.6641C35.017 65.0165 38.6078 63.5291 42.352 63.5291H49.4108V56.4703H42.352C38.1638 56.4703 34.0695 57.7123 30.5871 60.0392C27.1046 62.3661 24.3904 65.6734 22.7876 69.5429C21.1848 73.4123 20.7655 77.6702 21.5826 81.778C22.3997 85.8858 24.4165 89.6591 27.3781 92.6207C30.3397 95.5822 34.1129 97.5991 38.2207 98.4162C42.3285 99.2333 46.5864 98.8139 50.4559 97.2111C54.3254 95.6083 57.6327 92.8941 59.9596 89.4117C62.2864 85.9292 63.5284 81.835 63.5284 77.6467V0H56.4696V77.6467C56.4696 81.3909 54.9822 84.9818 52.3347 87.6294C49.6871 90.2769 46.0963 91.7643 42.352 91.7643C38.6078 91.7643 35.017 90.2769 32.3694 87.6294C29.7218 84.9818 28.2345 81.3909 28.2345 77.6467Z" fill="url(#paint0_linear)"/>
<path d="M42.3534 52.9404H49.4122V45.8816H42.3534C34.2375 45.8914 26.4325 49.0036 20.5367 54.5809C14.6409 60.1583 11.1005 67.7787 10.6406 75.8815H17.6994C18.1522 69.651 20.9458 63.8226 25.5191 59.5671C30.0923 55.3116 36.1064 52.9442 42.3534 52.9404Z" fill="url(#paint1_linear)"/>
<path d="M67.0579 77.6463C67.065 84.0493 64.5855 90.2049 60.1421 94.8152C55.6987 99.4255 49.6386 102.13 43.2397 102.359C36.8408 102.588 30.603 100.323 25.8416 96.042C21.0802 91.7609 18.1672 85.7981 17.7169 79.411H10.6581C11.199 87.6083 14.8946 95.2772 20.9692 100.808C27.0438 106.338 35.0249 109.3 43.2368 109.072C51.4487 108.844 59.2528 105.443 65.0107 99.5831C70.7685 93.7234 74.0322 85.861 74.1167 77.6463V28.2347H67.0579V77.6463Z" fill="url(#paint2_linear)"/>
<path d="M74.119 7.05908H67.0602V24.7061H74.119V7.05908Z" fill="url(#paint3_linear)"/>
<path d="M77.6467 14.118V77.6472C77.6467 84.6277 75.5768 91.4514 71.6986 97.2554C67.8205 103.06 62.3083 107.583 55.8592 110.255C49.41 112.926 42.3136 113.625 35.4673 112.263C28.6209 110.901 22.3321 107.54 17.3962 102.604C12.4602 97.6678 9.0988 91.379 7.73697 84.5327C6.37515 77.6863 7.07409 70.5899 9.7454 64.1408C12.4167 57.6916 16.9404 52.1795 22.7445 48.3013C28.5486 44.4232 35.3723 42.3532 42.3528 42.3532H49.4116V35.2944H42.3528C33.9762 35.2944 25.7877 37.7784 18.8228 42.4321C11.858 47.0859 6.42951 53.7005 3.22393 61.4395C0.0183509 69.1784 -0.820375 77.6942 0.813815 85.9098C2.44801 94.1254 6.48171 101.672 12.4049 107.595C18.328 113.518 25.8745 117.552 34.0902 119.186C42.3058 120.82 50.8215 119.982 58.5605 116.776C66.2994 113.57 72.914 108.142 77.5678 101.177C82.2216 94.2122 84.7055 86.0238 84.7055 77.6472V14.118H77.6467Z" fill="url(#paint4_linear)"/>
<defs>
<linearGradient id="paint0_linear" x1="89.0436" y1="4.77174" x2="-25.5347" y2="153.317" gradientUnits="userSpaceOnUse">
<stop stop-color="#C97863"/>
<stop offset="1" stop-color="#EDC8B8"/>
</linearGradient>
<linearGradient id="paint1_linear" x1="6493.25" y1="-159.317" x2="-153.555" y2="10977.6" gradientUnits="userSpaceOnUse">
<stop stop-color="#C97863"/>
<stop offset="1" stop-color="#EDC8B8"/>
</linearGradient>
<linearGradient id="paint2_linear" x1="13234.8" y1="2044.62" x2="-7114.45" y2="22750.9" gradientUnits="userSpaceOnUse">
<stop stop-color="#C97863"/>
<stop offset="1" stop-color="#EDC8B8"/>
</linearGradient>
<linearGradient id="paint3_linear" x1="1309.76" y1="6.70619" x2="-2321.18" y2="1889.64" gradientUnits="userSpaceOnUse">
<stop stop-color="#C97863"/>
<stop offset="1" stop-color="#EDC8B8"/>
</linearGradient>
<linearGradient id="paint4_linear" x1="17102" y1="2124.34" x2="-9533.95" y2="29749.3" gradientUnits="userSpaceOnUse">
<stop stop-color="#C97863"/>
<stop offset="1" stop-color="#EDC8B8"/>
</linearGradient>
</defs>
</svg>
